<svg width="430" height="136" viewBox="0 0 430 136" fill="none" xmlns="http://www.w3.org/2000/svg">
<g filter="url(#filter0_d_1504_273483)">
<path d="M25.4184 111.093C25.128 110.811 24.9828 110.465 24.9828 110.055V27.5838C24.9828 27.1781 25.128 26.8322 25.4184 26.5461C25.7088 26.2601 26.0632 26.1191 26.4774 26.1191H44.1981C44.6123 26.1191 44.9667 26.2643 45.257 26.5461C45.5474 26.8322 45.6926 27.1781 45.6926 27.5838V59.306C45.6926 59.5493 45.7737 59.6945 45.9402 59.733C46.1068 59.7757 46.2733 59.7159 46.4398 59.5493L71.6545 26.9732C72.1541 26.4052 72.7348 26.1191 73.4009 26.1191H93.6196C94.4522 26.1191 94.8664 26.4052 94.8664 26.9732C94.8664 27.2165 94.7426 27.5411 94.4907 27.951L67.5339 63.2088C67.3673 63.5333 67.3246 63.8194 67.41 64.0628L95.6137 109.812C95.7802 110.299 95.8614 110.585 95.8614 110.666C95.8614 111.238 95.4472 111.52 94.6145 111.52H74.7716C73.8535 111.52 73.2301 111.196 72.9013 110.542L53.3103 77.9661C53.0627 77.4793 52.768 77.4793 52.435 77.9661L45.9445 86.63C45.778 86.9545 45.6968 87.2022 45.6968 87.3602V110.051C45.6968 110.461 45.5517 110.803 45.2613 111.089C44.9667 111.375 44.6165 111.516 44.2023 111.516H26.4816C26.0632 111.516 25.713 111.375 25.4227 111.089L25.4184 111.093Z" fill="#F8F7FF"/>
<path d="M103.556 111.093C103.266 110.811 103.125 110.465 103.125 110.055V27.5838C103.125 27.1781 103.266 26.8322 103.556 26.5461C103.842 26.2601 104.192 26.1191 104.606 26.1191H122.139C122.549 26.1191 122.899 26.2643 123.19 26.5461C123.476 26.8322 123.621 27.1781 123.621 27.5838V110.055C123.621 110.465 123.476 110.807 123.19 111.093C122.899 111.379 122.549 111.52 122.139 111.52H104.606C104.192 111.52 103.846 111.379 103.556 111.093Z" fill="#F8F7FF"/>
<path d="M148.434 108.8C143.421 106.277 139.527 102.686 136.751 98.0398C133.976 93.394 132.588 88.0137 132.588 81.9033V55.4973C132.588 49.468 133.976 44.1475 136.751 39.5444C139.527 34.9413 143.421 31.3758 148.434 28.848C153.447 26.3244 159.267 25.0562 165.894 25.0562C172.522 25.0562 178.342 26.2603 183.355 28.6643C188.368 31.0684 192.258 34.4545 195.038 38.81C197.813 43.1697 199.201 48.2041 199.201 53.9089C199.201 54.3188 199.056 54.6433 198.765 54.8867C198.475 55.1301 198.121 55.2539 197.711 55.2539L180.062 56.3556C179.068 56.3556 178.572 55.9072 178.572 55.0105C178.572 51.1803 177.411 48.1229 175.092 45.8427C172.774 43.5625 169.708 42.4182 165.894 42.4182C162.081 42.4182 159.015 43.5796 156.697 45.9025C154.378 48.2254 153.217 51.2614 153.217 55.0105V82.7616C153.217 86.5107 154.374 89.5296 156.697 91.8098C159.015 94.09 162.081 95.2344 165.894 95.2344C169.708 95.2344 172.769 94.0943 175.092 91.8098C177.411 89.5296 178.572 86.5107 178.572 82.7616C178.572 81.8649 179.068 81.4165 180.062 81.4165L197.711 82.2748C198.125 82.2748 198.475 82.3986 198.765 82.642C199.056 82.8854 199.201 83.1715 199.201 83.496C199.201 89.2819 197.813 94.3761 195.038 98.7785C192.262 103.181 188.368 106.584 183.355 108.988C178.342 111.392 172.522 112.596 165.894 112.596C159.267 112.596 153.447 111.332 148.434 108.809V108.8Z" fill="#F8F7FF"/>
<path d="M265.493 54.6302H291.498C292.168 54.6302 292.715 54.0751 292.715 53.4005V27.3489C292.715 26.67 292.168 26.1191 291.498 26.1191H265.011C264.605 26.1191 264.041 26.354 263.755 26.6444L237.477 52.8624C236.551 53.7976 235.791 53.4773 235.791 52.1536V27.4258C235.791 26.7468 235.244 26.196 234.574 26.196H208.535C207.865 26.196 207.318 26.7511 207.318 27.4258V110.286C207.318 110.965 207.865 111.516 208.535 111.516H234.51C235.18 111.516 235.727 110.961 235.727 110.286V84.2985C235.727 83.6196 236.273 83.0688 236.944 83.0688H263.025C263.696 83.0688 264.242 83.6239 264.242 84.2985L265.698 83.0474C265.028 83.0474 264.276 82.4411 264.276 81.7621V55.8557C264.276 55.1768 264.823 54.626 265.493 54.626V54.6302Z" fill="#F8F7FF"/>
<path d="M357.269 110.299L354.037 99.4401C353.87 99.1156 353.666 98.9533 353.414 98.9533H325.073C324.826 98.9533 324.616 99.1156 324.45 99.4401L321.217 110.299C320.97 111.114 320.389 111.52 319.475 111.52H300.456C299.961 111.52 299.585 111.379 299.338 111.093C299.09 110.811 299.047 110.38 299.214 109.812L325.821 27.3404C326.068 26.5291 326.606 26.1191 327.439 26.1191H350.933C351.761 26.1191 352.299 26.5291 352.547 27.3404L379.273 109.812C379.354 109.974 379.397 110.179 379.397 110.423C379.397 111.153 378.94 111.52 378.03 111.52H359.012C358.098 111.52 357.521 111.114 357.269 110.299ZM329.924 83.3378H348.448C348.943 83.3378 349.109 83.0944 348.943 82.6076L339.493 51.2526C339.408 50.9281 339.284 50.7872 339.122 50.8256C338.955 50.8683 338.831 51.0092 338.75 51.2526L329.429 82.6076C329.343 83.0944 329.51 83.3378 329.924 83.3378Z" fill="#A0A0FF"/>
<path d="M384.952 111.093C384.662 110.811 384.521 110.465 384.521 110.055V27.5838C384.521 27.1781 384.662 26.8322 384.952 26.5461C385.238 26.2601 385.588 26.1191 386.003 26.1191H403.535C403.945 26.1191 404.295 26.2643 404.586 26.5461C404.872 26.8322 405.017 27.1781 405.017 27.5838V110.055C405.017 110.465 404.872 110.807 404.586 111.093C404.295 111.379 403.945 111.52 403.535 111.52H386.003C385.588 111.52 385.243 111.379 384.952 111.093Z" fill="#A0A0FF"/>
<path d="M291.515 83.0435H265.438C264.777 83.0435 264.242 83.5788 264.242 84.2391V110.316C264.242 110.977 264.777 111.512 265.438 111.512H291.515C292.175 111.512 292.711 110.977 292.711 110.316V84.2391C292.711 83.5788 292.175 83.0435 291.515 83.0435Z" fill="#A0A0FF"/>
</g>
<defs>
<filter id="filter0_d_1504_273483" x="0.982849" y="0.0517578" width="428.034" height="135.544" filterUnits="userSpaceOnUse" color-interpolation-filters="sRGB">
<feFlood flood-opacity="0" result="BackgroundImageFix"/>
<feColorMatrix in="SourceAlpha" type="matrix" values="0 0 0 0 0 0 0 0 0 0 0 0 0 0 0 0 0 0 127 0" result="hardAlpha"/>
<feOffset dy="-1"/>
<feGaussianBlur stdDeviation="12"/>
<feComposite in2="hardAlpha" operator="out"/>
<feColorMatrix type="matrix" values="0 0 0 0 0 0 0 0 0 0 0 0 0 0 0 0 0 0 0.25 0"/>
<feBlend mode="normal" in2="BackgroundImageFix" result="effect1_dropShadow_1504_273483"/>
<feBlend mode="normal" in="SourceGraphic" in2="effect1_dropShadow_1504_273483" result="shape"/>
</filter>
</defs>
</svg>
