<svg width="165" height="35" viewBox="0 0 165 35" fill="none" xmlns="http://www.w3.org/2000/svg">
<rect width="34.007" height="34.007" rx="6.47753" fill="#F52D20"/>
<path d="M20.0337 26.2347L17.9544 24.1376C17.3639 23.542 16.409 23.542 15.8248 24.1376L13.7455 26.2347C13.1362 26.8492 12.1436 26.8492 11.5343 26.2347L10.5292 25.221L13.7141 22.0088C15.4668 20.2412 18.3062 20.2412 20.0588 22.0088L23.2438 25.221L22.2387 26.2347C21.6356 26.8492 20.6493 26.8492 20.0337 26.2347Z" fill="white"/>
<path d="M8.74654 23.416L7.74143 22.4023C7.13209 21.7878 7.13209 20.7867 7.74143 20.1722L9.82075 18.0751C10.4112 17.4796 10.4112 16.5165 9.82075 15.9273L7.74143 13.8303C7.13209 13.2157 7.13209 12.2147 7.74143 11.6001L8.74654 10.5864L11.9315 13.7986C13.6841 15.5662 13.6841 18.4299 11.9315 20.1975L8.74654 23.416Z" fill="white"/>
<path d="M16.9177 13.298C15.7681 13.298 14.6185 12.8608 13.7454 11.9739L10.5604 8.76172L11.5655 7.74802C12.1749 7.13347 13.1674 7.13347 13.7768 7.74802L15.8561 9.84511C16.4403 10.4343 17.4014 10.4343 17.9856 9.84511L20.065 7.74802C20.6743 7.13347 21.6669 7.13347 22.2762 7.74802L23.2813 8.76172L20.0964 11.9739C19.2169 12.8482 18.0673 13.298 16.9177 13.298Z" fill="white"/>
<path d="M25.0674 23.3901L21.8825 20.178C20.1298 18.4104 20.1298 15.5467 21.8825 13.779L25.0674 10.5669L26.0725 11.5806C26.6819 12.1951 26.6819 13.1962 26.0725 13.8107L23.9932 15.9078C23.4027 16.5033 23.4027 17.4664 23.9932 18.0556L26.0725 20.1526C26.6819 20.7672 26.6819 21.7682 26.0725 22.3828L25.0674 23.3901Z" fill="white"/>
<g clip-path="url(#clip0_1858_3259)">
<path d="M43.4871 12.0283C43.7014 12.0283 43.7567 12.0841 43.8189 12.1677L46.604 15.9177H46.7008L49.3892 12.1886C49.4652 12.0911 49.5827 12.0353 49.7348 12.0353H51.4211C51.5938 12.0353 51.656 12.1886 51.5731 12.2862L47.7996 17.0677L52.0016 22.3929C52.0983 22.5323 52.0431 22.6648 51.8634 22.6648H50.1632C50.0112 22.6648 49.873 22.609 49.7762 22.4696L46.6386 18.2178H46.5418L43.5493 22.4557C43.4318 22.5951 43.3005 22.6717 43.1416 22.6717H41.4553C41.317 22.6717 41.241 22.5532 41.3378 22.4208L45.4775 17.1096L41.7455 12.328C41.6695 12.1886 41.7041 12.0353 41.8838 12.0353H43.4871V12.0283Z" fill="black"/>
<path d="M60.1699 12.0283C62.4713 12.0283 64.1369 13.7081 64.1369 15.834C64.1369 18.0226 62.4713 19.6606 60.1699 19.6606H56.825V22.3929C56.825 22.5672 56.7489 22.6648 56.59 22.6648H55.3322C55.1594 22.6648 55.0626 22.5672 55.0626 22.3929V12.3071C55.0626 12.1329 55.1594 12.0353 55.3322 12.0353H60.1699V12.0283ZM60.1699 18.0017C61.5798 18.0017 62.3746 17.0817 62.3746 15.834C62.3746 14.6073 61.5798 13.6872 60.1699 13.6872H56.825V18.0017H60.1699Z" fill="black"/>
<path d="M67.8343 20.2251C68.5324 20.2251 69.1336 20.8106 69.1336 21.5146C69.1336 22.2186 68.5324 22.825 67.8343 22.825C67.1363 22.825 66.5558 22.2186 66.5558 21.5146C66.5558 20.8106 67.1363 20.2251 67.8343 20.2251Z" fill="black"/>
<path d="M80.7948 22.6656C80.6566 22.6656 80.546 22.6098 80.4631 22.4914L77.0007 18.0792L74.4297 14.5105L74.333 14.5314L74.4505 17.6959V22.4007C74.4505 22.575 74.3537 22.6726 74.1602 22.6726H72.9438C72.7918 22.6726 72.7089 22.575 72.7089 22.4007V12.308C72.7089 12.1337 72.7849 12.0361 72.9577 12.0361H74.098C74.2915 12.0361 74.4435 12.0919 74.5403 12.2313L78.2585 16.9152L80.5806 20.1564L80.6774 20.1354L80.5391 16.9919V12.308C80.5391 12.1337 80.6359 12.0361 80.8087 12.0361H82.025C82.1978 12.0361 82.2738 12.1337 82.2738 12.308V22.4007C82.2738 22.575 82.1978 22.6726 82.025 22.6726H80.7948V22.6656Z" fill="black"/>
<path d="M94.0283 12.0283C94.1666 12.0283 94.2979 12.1468 94.2979 12.3002V13.4154C94.2979 13.5548 94.1596 13.6663 94.0283 13.6663H87.912V16.301H93.4824C93.6551 16.301 93.7519 16.3986 93.7519 16.5729V17.6881C93.7519 17.8623 93.6551 17.939 93.4824 17.939H87.912V21.0059H94.2218C94.3946 21.0059 94.4707 21.0825 94.4707 21.2429V22.3929C94.4707 22.5672 94.3946 22.6648 94.2218 22.6648H86.4054C86.2326 22.6648 86.1566 22.5672 86.1566 22.3929V12.3071C86.1566 12.1329 86.2326 12.0353 86.4054 12.0353H94.0283V12.0283Z" fill="black"/>
<path d="M106.569 12.0283C106.742 12.0283 106.838 12.1259 106.838 12.3002V13.4154C106.838 13.5896 106.742 13.6872 106.569 13.6872H102.989V22.3929C102.989 22.5323 102.892 22.6648 102.719 22.6648H101.503C101.33 22.6648 101.233 22.5672 101.233 22.3929V13.6872H97.6534C97.4807 13.6872 97.3839 13.5896 97.3839 13.4154V12.3002C97.3839 12.1259 97.4807 12.0283 97.6534 12.0283H106.569Z" fill="black"/>
<path d="M111.08 12.0283C111.252 12.0283 111.349 12.0841 111.391 12.2235L113.83 20.5946H113.927L116.27 12.2235C116.311 12.0841 116.408 12.0283 116.539 12.0283H117.839C117.977 12.0283 118.074 12.0841 118.108 12.2235L120.506 20.5946H120.603L123.022 12.2444C123.063 12.105 123.16 12.0283 123.291 12.0283H124.722C124.895 12.0283 124.957 12.105 124.895 12.2792L121.605 22.4278C121.55 22.5811 121.432 22.6648 121.273 22.6648H119.67C119.518 22.6648 119.421 22.5881 119.359 22.4138L117.23 14.9418H117.134L115.026 22.4347C114.984 22.5881 114.888 22.6717 114.756 22.6717H113.132C112.959 22.6717 112.842 22.5951 112.787 22.4347L109.476 12.2444C109.421 12.105 109.476 12.0283 109.649 12.0283H111.08Z" fill="black"/>
<path d="M132.971 11.875C136.026 11.875 138.41 14.1751 138.41 17.3605C138.41 20.525 136.033 22.8251 132.971 22.8251C129.916 22.8251 127.532 20.525 127.532 17.3605C127.532 14.1751 129.909 11.875 132.971 11.875ZM129.308 17.3605C129.308 19.5491 130.801 21.1662 132.964 21.1662C135.134 21.1662 136.62 19.5491 136.62 17.3605C136.62 15.1579 135.127 13.5339 132.964 13.5339C130.801 13.5339 129.308 15.151 129.308 17.3605Z" fill="black"/>
<path d="M147.003 12.0283C149.305 12.0283 150.991 13.7081 150.991 15.834C150.991 17.3187 150.196 18.5663 148.98 19.1936L150.742 22.3581C150.839 22.5323 150.742 22.6717 150.528 22.6717H149.118C148.945 22.6717 148.807 22.5323 148.731 22.3999L147.321 19.6467C147.266 19.6676 147.169 19.6676 147.052 19.6676H143.665V22.3999C143.665 22.5741 143.589 22.6717 143.417 22.6717H142.2C141.986 22.6717 141.91 22.5323 141.91 22.3999V12.3071C141.91 12.1329 142.007 12.0353 142.179 12.0353H147.003V12.0283ZM147.003 18.0017C148.413 18.0017 149.229 17.0817 149.229 15.834C149.229 14.6073 148.413 13.6872 147.003 13.6872H143.658V18.0017H147.003Z" fill="black"/>
<path d="M156.147 12.0283C156.32 12.0283 156.416 12.1259 156.416 12.3002V16.9841L161.406 12.2444C161.544 12.105 161.738 12.0283 161.966 12.0283H163.708C163.88 12.0283 163.956 12.2026 163.825 12.342L159.181 16.6147L164.074 22.3302C164.212 22.4696 164.129 22.6648 163.922 22.6648H162.374C162.139 22.6648 161.945 22.5881 161.793 22.4138L157.902 17.7717L156.409 18.9845V22.3999C156.409 22.5741 156.313 22.6717 156.14 22.6717H154.924C154.751 22.6717 154.654 22.5741 154.654 22.3999V12.3071C154.654 12.1329 154.751 12.0353 154.924 12.0353H156.147V12.0283Z" fill="black"/>
</g>
<defs>
<clipPath id="clip0_1858_3259">
<rect width="123.073" height="16.4097" fill="white" transform="translate(41.2942 8.79883)"/>
</clipPath>
</defs>
</svg>
