<svg width="189" height="30" viewBox="0 0 189 30" fill="none" xmlns="http://www.w3.org/2000/svg">
<g clip-path="url(#clip0_17_322)">
<path d="M42.1548 23.5098C40.9227 23.1552 39.9369 22.6927 39.1976 22.1377L40.6327 19.1161C41.3576 19.6249 42.2128 20.0411 43.2276 20.334C44.2278 20.6423 45.228 20.7965 46.1993 20.7965C48.4317 20.7965 49.5479 20.1644 49.5479 18.9157C49.5479 18.3145 49.2579 17.9137 48.6926 17.667C48.1272 17.4358 47.214 17.2045 45.9528 17.0041C44.6337 16.7883 43.561 16.5416 42.7347 16.2795C41.9084 16.002 41.1836 15.5241 40.5748 14.8304C39.9659 14.1367 39.6615 13.1809 39.6615 11.9476C39.6615 10.3289 40.2993 9.04932 41.5605 8.07809C42.8217 7.10687 44.5322 6.62897 46.6921 6.62897C47.7938 6.62897 48.881 6.76771 49.9827 7.02979C51.0844 7.29187 51.9832 7.64644 52.679 8.09351L51.2439 11.1151C49.8813 10.2672 48.3592 9.83555 46.6631 9.83555C45.5614 9.83555 44.7351 10.0051 44.1698 10.3597C43.6045 10.7143 43.3145 11.1768 43.3145 11.7472C43.3145 12.3792 43.6189 12.8417 44.2278 13.1038C44.8366 13.3659 45.7789 13.6125 47.0545 13.8438C48.3302 14.0596 49.3739 14.3063 50.2002 14.5683C51.012 14.8458 51.7223 15.3083 52.3166 15.9712C52.911 16.6341 53.2009 17.5591 53.2009 18.777C53.2009 20.3648 52.5485 21.6444 51.2584 22.6002C49.9682 23.556 48.1997 24.0339 45.9673 24.0339C44.6482 24.0493 43.387 23.8797 42.1548 23.5098Z" fill="black"/>
<path d="M69.0451 8.44794C70.2918 9.6504 70.9151 11.4541 70.9151 13.8745V23.8333H67.3781V21.7676C66.9142 22.5075 66.2619 23.0779 65.4211 23.4634C64.5803 23.8488 63.5511 24.0492 62.3479 24.0492C61.1447 24.0492 60.101 23.8333 59.2023 23.4017C58.3035 22.97 57.6077 22.3688 57.1293 21.5826C56.6364 20.8118 56.39 19.933 56.39 18.9618C56.39 17.4356 56.9264 16.2023 57.9846 15.2927C59.0573 14.3678 60.7388 13.9053 63.0292 13.9053H67.1606V13.6432C67.1606 12.4562 66.8272 11.5466 66.1604 10.9145C65.4936 10.2825 64.4933 9.95873 63.1887 9.95873C62.2899 9.95873 61.4057 10.1129 60.5359 10.4058C59.6661 10.6987 58.9413 11.1149 58.3325 11.6545L56.8684 8.75626C57.7092 8.07795 58.7094 7.55379 59.8836 7.19922C61.0578 6.84465 62.3044 6.65965 63.6236 6.65965C66.0009 6.64424 67.7984 7.24547 69.0451 8.44794ZM65.6385 20.4726C66.3633 20.0101 66.8852 19.3626 67.1751 18.5147V16.5415H63.3191C61.1592 16.5415 60.0865 17.2969 60.0865 18.8076C60.0865 19.5322 60.3619 20.1026 60.8983 20.5189C61.4347 20.9505 62.1885 21.1509 63.1452 21.1509C64.0729 21.1663 64.9137 20.9351 65.6385 20.4726Z" fill="black"/>
<path d="M80.4391 5.95067V6.96814H84.8314V10.1439H80.555V23.8335H76.815V10.1439H74.1768V6.96814H76.815V5.889C76.815 4.06989 77.3079 2.62076 78.3081 1.57246C79.3084 0.524152 80.7145 0 82.5265 0C83.9616 0 85.0923 0.308325 85.9041 0.924974L84.8604 3.91572C84.2225 3.45324 83.5267 3.22199 82.8019 3.22199C81.2218 3.20658 80.4391 4.13155 80.4391 5.95067Z" fill="black"/>
<path d="M103.053 16.6032H90.514C90.7315 17.8519 91.3113 18.8539 92.239 19.5785C93.1668 20.3031 94.312 20.6731 95.6891 20.6731C97.4431 20.6731 98.8928 20.0564 100.023 18.8231L102.024 21.2743C101.299 22.1839 100.4 22.8776 99.2986 23.3401C98.1969 23.8026 96.9648 24.0338 95.5876 24.0338C93.8336 24.0338 92.2825 23.6638 90.9489 22.9238C89.6153 22.1839 88.586 21.151 87.8467 19.8252C87.1219 18.4994 86.7595 17.004 86.7595 15.3236C86.7595 13.6741 87.1074 12.1787 87.8177 10.8529C88.528 9.52712 89.5138 8.49424 90.7604 7.75426C92.0216 7.01428 93.4277 6.64429 95.0078 6.64429C96.5589 6.64429 97.9505 7.01428 99.1827 7.73884C100.415 8.4634 101.372 9.49629 102.053 10.8221C102.734 12.1479 103.082 13.6741 103.082 15.4161C103.126 15.709 103.097 16.0944 103.053 16.6032ZM92.0071 10.9608C91.1808 11.7162 90.6735 12.7183 90.4995 13.967H99.5596C99.4001 12.7337 98.9072 11.7471 98.0955 10.9762C97.2837 10.2054 96.2545 9.83545 95.0368 9.83545C93.8481 9.83545 92.8334 10.2054 92.0071 10.9608Z" fill="black"/>
<path d="M120.332 7.73896C121.564 8.46353 122.521 9.481 123.217 10.7914C123.913 12.1018 124.261 13.628 124.261 15.3392C124.261 17.0504 123.913 18.5766 123.217 19.9024C122.521 21.2282 121.55 22.2456 120.332 22.9702C119.1 23.6948 117.708 24.0493 116.157 24.0493C113.997 24.0493 112.301 23.2785 111.04 21.7523V30H107.3V6.84482H110.866V9.08018C111.49 8.27853 112.243 7.66188 113.157 7.26106C114.07 6.86024 115.07 6.65983 116.157 6.65983C117.723 6.64441 119.115 7.0144 120.332 7.73896ZM119.144 19.1932C120.028 18.222 120.477 16.927 120.477 15.3392C120.477 13.7513 120.028 12.4717 119.144 11.4851C118.259 10.5139 117.129 10.0206 115.752 10.0206C114.853 10.0206 114.041 10.2364 113.331 10.668C112.606 11.0997 112.041 11.7164 111.62 12.5334C111.2 13.3351 110.997 14.2754 110.997 15.3392C110.997 16.4029 111.2 17.3279 111.62 18.1449C112.041 18.9466 112.606 19.5786 113.331 20.0103C114.055 20.4419 114.853 20.6578 115.752 20.6578C117.129 20.6578 118.259 20.1645 119.144 19.1932Z" fill="black"/>
<path d="M137.684 6.64441V10.4368C137.365 10.3751 137.075 10.3443 136.814 10.3443C135.365 10.3443 134.219 10.7914 133.408 11.7009C132.596 12.5951 132.176 13.9055 132.176 15.6012V23.8489H128.436V6.84482H132.002V9.32683C133.074 7.53855 134.959 6.64441 137.684 6.64441Z" fill="black"/>
<path d="M156.254 16.6033H143.714C143.932 17.852 144.512 18.8541 145.439 19.5786C146.367 20.3032 147.512 20.6732 148.89 20.6732C150.644 20.6732 152.093 20.0565 153.224 18.8232L155.224 21.2744C154.5 22.184 153.601 22.8777 152.499 23.3402C151.397 23.8027 150.165 24.0339 148.788 24.0339C147.034 24.0339 145.483 23.6639 144.149 22.924C142.816 22.184 141.786 21.1511 141.047 19.8253C140.322 18.4995 139.96 17.0041 139.96 15.3238C139.96 13.6742 140.308 12.1788 141.018 10.853C141.728 9.52725 142.714 8.49436 143.961 7.75438C145.222 7.0144 146.628 6.64441 148.208 6.64441C149.759 6.64441 151.151 7.0144 152.383 7.73896C153.615 8.46353 154.572 9.49641 155.253 10.8222C155.935 12.148 156.283 13.6742 156.283 15.4162C156.312 15.7092 156.297 16.0946 156.254 16.6033ZM145.208 10.961C144.381 11.7164 143.874 12.7184 143.7 13.9671H152.76C152.601 12.7338 152.108 11.7472 151.296 10.9764C150.484 10.2056 149.455 9.83557 148.237 9.83557C147.049 9.83557 146.034 10.2056 145.208 10.961Z" fill="black"/>
<path d="M161.646 23.5098C160.414 23.1552 159.428 22.6927 158.689 22.1377L160.124 19.1161C160.849 19.6249 161.704 20.0411 162.719 20.334C163.719 20.6423 164.719 20.7965 165.691 20.7965C167.923 20.7965 169.039 20.1644 169.039 18.9157C169.039 18.3145 168.749 17.9137 168.184 17.667C167.619 17.4358 166.705 17.2045 165.444 17.0041C164.125 16.7883 163.052 16.5416 162.226 16.2795C161.4 16.002 160.675 15.5241 160.066 14.8304C159.457 14.1367 159.153 13.1809 159.153 11.9476C159.153 10.3289 159.791 9.04932 161.052 8.07809C162.313 7.10687 164.024 6.62897 166.183 6.62897C167.285 6.62897 168.372 6.76771 169.474 7.02979C170.576 7.29187 171.475 7.64644 172.17 8.09351L170.735 11.1151C169.373 10.2672 167.851 9.83555 166.154 9.83555C165.053 9.83555 164.226 10.0051 163.661 10.3597C163.096 10.7143 162.806 11.1768 162.806 11.7472C162.806 12.3792 163.11 12.8417 163.719 13.1038C164.328 13.3659 165.27 13.6125 166.546 13.8438C167.822 14.0596 168.865 14.3063 169.692 14.5683C170.503 14.8458 171.214 15.3083 171.808 15.9712C172.402 16.6341 172.692 17.5591 172.692 18.777C172.692 20.3648 172.04 21.6444 170.75 22.6002C169.46 23.556 167.691 24.0339 165.459 24.0339C164.154 24.0493 162.878 23.8797 161.646 23.5098Z" fill="black"/>
<path d="M177.65 23.5098C176.418 23.1552 175.432 22.6927 174.693 22.1377L176.128 19.1161C176.853 19.6249 177.708 20.0411 178.723 20.334C179.723 20.6423 180.723 20.7965 181.694 20.7965C183.927 20.7965 185.043 20.1644 185.043 18.9157C185.043 18.3145 184.753 17.9137 184.188 17.667C183.622 17.4358 182.709 17.2045 181.448 17.0041C180.129 16.7883 179.056 16.5416 178.23 16.2795C177.403 16.002 176.679 15.5241 176.07 14.8304C175.461 14.1367 175.157 13.1809 175.157 11.9476C175.157 10.3289 175.794 9.04932 177.056 8.07809C178.317 7.10687 180.027 6.62897 182.187 6.62897C183.289 6.62897 184.376 6.76771 185.478 7.02979C186.579 7.29187 187.478 7.64644 188.174 8.09351L186.739 11.1151C185.376 10.2672 183.854 9.83555 182.158 9.83555C181.056 9.83555 180.23 10.0051 179.665 10.3597C179.099 10.7143 178.81 11.1768 178.81 11.7472C178.81 12.3792 179.114 12.8417 179.723 13.1038C180.332 13.3659 181.274 13.6125 182.55 13.8438C183.825 14.0596 184.869 14.3063 185.695 14.5683C186.507 14.8458 187.217 15.3083 187.812 15.9712C188.406 16.6341 188.696 17.5591 188.696 18.777C188.696 20.3648 188.044 21.6444 186.753 22.6002C185.463 23.556 183.695 24.0339 181.462 24.0339C180.158 24.0493 178.882 23.8797 177.65 23.5098Z" fill="black"/>
<path d="M24.5709 16.4492L15.5978 0.0309448L12.3797 6.13577L19.5987 19.4708C19.6132 19.4862 19.6132 19.5017 19.6277 19.5171C20.309 20.8274 19.8307 21.9683 19.5842 22.3999C19.3378 22.847 18.6275 23.8644 17.1924 23.8644L14.5976 23.849L3.20364 23.8028L0 29.9847L10.3937 29.9539L17.1779 29.9384C20.2365 29.9539 22.9908 28.2735 24.5274 25.4523C26.0785 22.662 26.0785 19.2858 24.5709 16.4492Z" fill="#0B45D6"/>
<path d="M27.6583 0L15.5975 0.0308325L18.9606 6.18191H24.4547L27.6583 0Z" fill="#277FFF"/>
<path d="M8.05961 10.5138C8.04512 10.4984 8.04512 10.483 8.03062 10.4676C7.34931 9.15721 7.82768 8.01641 8.05961 7.58475C8.30605 7.13768 9.01636 6.12021 10.4515 6.12021L12.3794 6.13563L15.5976 0.0153809L10.4805 0.0462133C7.42179 0.0307971 4.66753 1.71117 3.13094 4.51692C1.59436 7.33809 1.59436 10.6988 3.10195 13.5354L12.0895 30L15.2787 23.8489L8.05961 10.5138Z" fill="#277FFF"/>
</g>
<defs>
<clipPath id="clip0_17_322">
<rect width="188.696" height="30" fill="black"/>
</clipPath>
</defs>
</svg>
